<?xml version="1.0" standalone="no"?>
<!DOCTYPE svg PUBLIC "-//W3C//DTD SVG 20010904//EN"
 "http://www.w3.org/TR/2001/REC-SVG-20010904/DTD/svg10.dtd">
<svg version="1.0" xmlns="http://www.w3.org/2000/svg"
 width="693.000000pt" height="822.000000pt" viewBox="0 0 693.000000 822.000000"
 preserveAspectRatio="xMidYMid meet">
<metadata>
Created by potrace 1.16, written by Peter Selinger 2001-2019
</metadata>
<g transform="translate(0.000000,822.000000) scale(0.100000,-0.100000)"
fill="#000000" stroke="none">
<path d="M40 4110 l0 -4070 965 0 965 0 0 1115 0 1115 483 2 482 3 -3 1310
c-2 721 -7 1354 -10 1408 l-7 99 -237 -229 c-130 -125 -365 -354 -523 -507
l-286 -280 -260 260 c-142 142 -259 262 -259 265 0 4 115 121 257 260 141 140
315 313 388 384 254 251 1061 1045 1190 1169 72 69 138 126 148 126 18 0 226
-201 1191 -1145 241 -236 520 -509 620 -606 l181 -176 -42 -49 c-22 -27 -138
-145 -257 -262 l-216 -214 -32 27 c-18 15 -177 165 -352 334 -176 168 -398
381 -495 473 l-176 168 -6 -243 c-3 -133 -7 -768 -8 -1410 l-1 -1168 33 5 c17
3 82 8 142 11 219 12 423 44 745 114 257 57 578 193 876 372 243 146 395 267
582 467 153 162 206 227 307 382 219 334 366 714 442 1146 26 148 26 855 0
994 -115 612 -296 1014 -630 1396 -267 305 -586 544 -956 715 -194 90 -532
200 -684 223 -20 3 -99 18 -175 32 -199 37 -437 42 -2554 49 l-1828 6 0 -4071z"/>
</g>
</svg>
